<?xml version="1.0" encoding="utf-8"?>
<!-- Generator: Adobe Illustrator 27.2.0, SVG Export Plug-In . SVG Version: 6.00 Build 0)  -->
<svg version="1.1" id="Layer_1" xmlns="http://www.w3.org/2000/svg" xmlns:xlink="http://www.w3.org/1999/xlink" x="0px" y="0px"
	 viewBox="0 0 272.01 149.23" style="enable-background:new 0 0 272.01 149.23;" xml:space="preserve">
<style type="text/css">
	.st0{fill:none;stroke:#000000;stroke-width:2;stroke-linecap:round;stroke-linejoin:round;stroke-miterlimit:10;}
	.st1{fill:#FFFFFF;stroke:#000000;stroke-width:2;stroke-linecap:round;stroke-linejoin:round;stroke-miterlimit:10;}
	.st2{stroke:#000000;stroke-width:2;stroke-linecap:round;stroke-linejoin:round;stroke-miterlimit:10;}
</style>
<line class="st0" x1="71.24" y1="132.19" x2="206.74" y2="132.19"/>
<rect x="190.69" y="116.14" class="st1" width="32.09" height="32.09"/>
<circle class="st2" cx="71.24" cy="132.19" r="10.69"/>
<line class="st0" x1="71.26" y1="42.64" x2="71.26" y2="20.34"/>
<line class="st0" x1="93.3" y1="20.34" x2="49.23" y2="20.34"/>
<line class="st0" x1="82.37" y1="13.57" x2="60.16" y2="13.57"/>
<line class="st0" x1="76.91" y1="6.8" x2="65.62" y2="6.8"/>
<line class="st0" x1="74.18" y1="1" x2="68.35" y2="1"/>
<line class="st0" x1="71.24" y1="132.19" x2="71.24" y2="106.73"/>
<line class="st0" x1="61.98" y1="101.44" x2="80.5" y2="90.74"/>
<line class="st0" x1="61.98" y1="80.05" x2="80.5" y2="90.74"/>
<line class="st0" x1="61.98" y1="80.05" x2="80.5" y2="69.36"/>
<line class="st0" x1="61.98" y1="58.67" x2="80.5" y2="69.36"/>
<line class="st0" x1="61.98" y1="58.67" x2="80.5" y2="47.98"/>
<line class="st0" x1="61.98" y1="101.44" x2="71.22" y2="106.77"/>
<line class="st0" x1="71.26" y1="42.64" x2="80.5" y2="47.98"/>
</svg>
